<svg width="647" height="638" viewBox="0 0 647 638" fill="none" xmlns="http://www.w3.org/2000/svg">
<path fill-rule="evenodd" clip-rule="evenodd" d="M79.8431 28.1328C79.8431 34.7846 82.5783 40.8774 87.0121 45.5967C83.1242 52.3466 80.9337 60.4026 80.3527 68.9241C80.3527 70.4931 80.4421 72.0297 80.6162 73.5316C75.6531 74.9638 71.764 79.3303 71.7127 84.5669C71.2646 91.5961 77.464 98.7094 84.7675 97.95C85.9955 97.95 87.1818 97.7242 88.302 97.317C94.7436 110.202 107.698 119.656 123.193 121.957C123.422 123.005 123.687 124.567 123.564 125.736C123.37 127.59 122.263 128.719 121.139 129.865C121.074 129.932 121.008 129.999 120.943 130.065L120.512 130.144L108.23 134.227L94.2882 141.136C84.7958 146.566 75.8654 152.924 67.6284 160.117L67.0684 160.606L21.5914 204.571L13.7443 213.851C11.8967 216.035 10.215 218.355 8.71327 220.791L4.82604 227.095C2.7529 230.457 1.48228 234.252 1.11277 238.184C0.614385 243.489 1.77604 248.817 4.43714 253.432L4.6571 253.814C7.05175 257.967 10.5055 261.411 14.6659 263.793L15.2921 264.151C35.2646 278.568 79.085 295.391 115.374 302.203C115.235 303.663 115.1 305.106 114.986 306.38C113.76 320.001 115.076 333.826 119.876 346.632C120.127 347.3 120.375 347.947 120.618 348.567C124.806 359.215 131.975 368.582 141.503 374.917L141.657 375.02L141.823 375.129C150.664 380.94 161.278 383.254 171.857 383.254H172.964C173.408 383.254 173.848 383.258 174.293 383.26C177.109 383.271 188.263 383.156 195.167 380.754C195.231 380.732 195.295 380.709 195.359 380.686C195.454 380.652 195.549 380.618 195.643 380.582L185.312 435.462C184.988 437.18 184.961 439.014 185.801 440.547C187.385 443.44 190.528 445.054 193.481 446.524C196.11 447.834 199.452 449.416 202.156 450.426C202.716 450.635 203.257 450.832 203.782 451.019C203.133 457.699 202.09 467.358 200.891 474.396C199.958 479.87 198.501 486.823 197.271 492.434C196.822 492.602 196.377 492.778 195.935 492.964L194.387 493.613C187.877 496.342 181.97 500.329 177.002 505.344L172.381 510.009C168.075 514.357 164.337 519.234 161.258 524.522L157.101 531.662C156.43 532.815 155.622 533.958 154.81 535.107C152.471 538.419 150.096 541.78 150.86 545.544C152.898 555.583 156.765 565.155 161.952 573.988C163.415 576.48 164.82 578.871 165.896 580.698C168.459 585.052 176.441 597.63 181.396 605.406C181.733 605.934 182.068 606.464 182.402 606.995C184.793 610.785 187.196 614.594 190.41 617.702C197.172 624.24 206.347 627.652 215.184 630.873C215.884 631.128 216.565 631.366 217.212 631.578C227.661 635.011 238.737 635.922 249.715 636.591L253.494 636.821L261.616 636.168C266.413 635.783 271.634 635.26 275.066 631.887C277.585 629.41 278.094 626.996 278.721 624.02L278.722 624.019L278.722 624.018L278.722 624.018C278.896 623.193 279.078 622.326 279.315 621.402C279.458 620.845 279.586 620.243 279.701 619.617C280.824 613.475 281.255 606.985 279.315 601.05C278.545 598.693 276.928 596.153 275.208 593.899C273.822 592.083 272.161 590.454 270.503 588.829C267.791 586.17 265.089 583.522 263.626 580.081C262.875 578.315 254.332 552.192 250.779 541.308C249.753 538.162 248.867 534.988 248.112 531.766L244.527 516.459C244.395 515.893 244.248 515.332 244.088 514.775C245.392 509.882 249.538 494.149 251.85 483.328C253.478 475.712 255.186 465.904 256.49 457.977C262.116 457.809 267.781 457.436 272.812 455.057C274.46 454.278 275.426 453.808 276.738 452.587C279.286 450.213 279.974 446.52 280.548 443.085L286.551 407.205L288.611 397.818C289.957 391.688 291.424 385.575 292.891 379.462L292.892 379.461L292.892 379.46L292.892 379.459L292.892 379.457L292.893 379.456L292.893 379.455L292.893 379.454L292.893 379.453L292.894 379.452C296.216 365.611 299.539 351.767 301.453 337.708L318.433 327.924C320.606 326.9 322.976 325.864 325.066 327.048C333.28 331.704 353.77 353.254 376.737 377.408C394.45 396.037 413.636 416.215 429.798 431.385C432.178 433.619 435.8 433.596 438.903 432.583L440.043 432.211C441.717 431.665 443.28 430.835 444.653 429.733C445.816 428.799 447.421 427.498 449.343 425.903C455.579 430.312 465.964 437.857 472.957 443.998C480.853 450.933 490.905 461.769 495.647 466.99C495.248 467.902 494.905 468.839 494.622 469.793C493.97 471.986 493.633 474.282 493.633 476.57C493.633 480.972 494.858 485.287 497.163 489.037C498.85 491.781 500.632 494.683 502.01 496.929C503.63 499.569 505.455 502.061 507.486 504.399C511.684 509.232 519.428 518.14 525.557 525.151C528.278 528.264 532.506 529.595 536.523 528.614C538.045 528.242 539.454 527.566 540.686 526.597C548.481 520.468 579.058 496.197 597.786 478.058C601.498 474.461 604.936 471.436 608.168 468.59L608.172 468.587L608.176 468.584L608.177 468.583C616.212 461.51 622.979 455.554 629.556 444.729C635.973 434.166 642.491 423.217 645.316 411.184C646.466 406.282 646.399 401.379 643.312 398.131C641.34 396.057 638.775 394.667 636.163 393.498C631.766 391.529 624.463 388.684 618.747 388.565C615.668 388.501 613.892 388.545 610.887 389.182C605.227 390.381 602.181 392.697 598.096 395.802C597.376 396.349 596.624 396.92 595.821 397.514C593.518 399.216 590.946 401.632 588.767 403.829C585.3 407.324 581.641 410.641 577.57 413.408L577.175 413.677C568.391 419.647 558.082 422.982 547.466 423.288L536.602 423.601C533.349 423.695 530.187 424.694 527.47 426.486L527.389 426.54L527.31 426.593L486.971 388.962C487.02 388.896 487.07 388.831 487.119 388.766C488.6 386.793 490.388 384.234 491.851 382.101C493.654 379.47 494.221 376.194 493.462 373.095C492.956 371.024 491.915 369.171 490.383 367.688C478.7 356.381 424.986 304.906 384.925 275.113C380.246 271.634 373.757 266.965 369.883 264.191C367.705 262.631 365.238 261.526 362.626 260.928L361.686 260.714C361.38 260.644 361.072 260.582 360.764 260.529C364.474 258.045 367.018 256.095 367.018 256.095L367.084 256.071C371.393 258.275 376.227 259.492 380.451 257.659C382.787 256.645 384.558 255.147 385.68 253.444C388.364 254.604 391.603 254.234 395.004 252.53C397.945 251.057 399.972 248.814 400.8 246.253C401.409 246.347 402.034 246.396 402.671 246.396C408.875 246.396 413.929 241.752 414.13 235.951C415.989 234.977 417.974 233.863 420.212 232.469H421.592L427.801 110.708C427.801 110.708 428.487 106.557 426.167 105.03C424.585 103.989 422.899 103.769 422.899 103.769C393.356 104.323 370.139 104.834 346.922 105.346C323.705 105.857 300.489 106.369 270.945 106.923C270.945 106.923 267.122 106.826 265.39 107.869C263.978 108.72 263.756 110.708 263.756 110.708L258.398 228.149L258.115 228.147L250.302 231.227C242.119 231.068 234.193 230.882 226.68 230.663C226.638 230.591 226.597 230.519 226.555 230.447L226.464 230.289L224.251 226.472C221.169 221.156 218.543 215.589 216.42 209.822C213.224 201.141 209.689 191.442 209.689 191.078C209.689 190.579 204.614 175.714 202.076 168.344L200.175 164.425C196.828 157.528 192.447 151.183 187.182 145.61L179.569 139.381L177.48 137.79C174.284 135.356 170.557 133.712 166.605 132.992C163.793 132.48 160.915 132.445 158.091 132.887L156.399 133.153L155.7 133.304C153.393 133.805 150.981 133.366 148.999 132.084L147.368 131.029C147.095 130.852 146.789 130.737 146.47 130.688C146.391 130.586 146.312 130.484 146.233 130.383C145.472 129.408 144.713 128.436 144.439 126.967C144.051 124.893 144.698 122.058 145.212 120.292C158.767 116.087 169.567 106.21 174.409 93.6607C178.369 93.339 184.068 88.8754 183.203 83.1847C183.426 78.0991 178.975 69.9956 175.716 67.9058C175.098 65.6484 174.293 63.4615 173.316 61.3605C170.98 39.1797 155.87 25.6756 138.247 25.0352C136.496 11.5089 123.453 1 108.654 1C92.742 1 79.8431 13.1478 79.8431 28.1328Z" fill="white"/>
<path d="M87.0121 45.5967L87.4454 45.8463L87.6306 45.5248L87.3765 45.2544L87.0121 45.5967ZM80.3527 68.9241L79.8539 68.8901L79.8527 68.9071V68.9241H80.3527ZM80.6162 73.5316L80.7549 74.012L81.1617 73.8946L81.1129 73.474L80.6162 73.5316ZM71.7127 84.5669L72.2116 84.5987L72.2125 84.5853L72.2126 84.5718L71.7127 84.5669ZM84.7675 97.95V97.45H84.7415L84.7157 97.4527L84.7675 97.95ZM88.302 97.317L88.7492 97.0934L88.5499 96.6949L88.1311 96.8471L88.302 97.317ZM123.193 121.957L123.682 121.851L123.608 121.513L123.267 121.462L123.193 121.957ZM123.564 125.736L123.067 125.683L123.564 125.736ZM121.139 129.865L121.496 130.215L121.496 130.215L121.139 129.865ZM120.943 130.065L121.033 130.557L121.19 130.529L121.301 130.415L120.943 130.065ZM120.512 130.144L120.422 129.653L120.388 129.659L120.355 129.67L120.512 130.144ZM108.23 134.227L108.072 133.752L108.039 133.763L108.008 133.779L108.23 134.227ZM94.2882 141.136L94.0662 140.688L94.0529 140.694L94.04 140.702L94.2882 141.136ZM67.6284 160.117L67.9573 160.494L67.6284 160.117ZM67.0684 160.606L66.7396 160.229L66.73 160.238L66.7209 160.246L67.0684 160.606ZM21.5914 204.571L21.2439 204.211L21.2258 204.229L21.2096 204.248L21.5914 204.571ZM13.7443 213.851L14.1261 214.173H14.1261L13.7443 213.851ZM8.71327 220.791L8.28768 220.528L8.71327 220.791ZM4.82604 227.095L5.25164 227.357L4.82604 227.095ZM1.11277 238.184L0.614963 238.138H0.614963L1.11277 238.184ZM4.43714 253.432L4.8703 253.182H4.8703L4.43714 253.432ZM4.6571 253.814L4.22394 254.063H4.22394L4.6571 253.814ZM14.6659 263.793L14.9144 263.359H14.9144L14.6659 263.793ZM15.2921 264.151L15.5847 263.746L15.5634 263.73L15.5405 263.717L15.2921 264.151ZM115.374 302.203L115.872 302.25L115.915 301.795L115.466 301.711L115.374 302.203ZM114.986 306.38L115.484 306.425L114.986 306.38ZM119.876 346.632L120.345 346.457L119.876 346.632ZM120.618 348.567L120.153 348.75H120.153L120.618 348.567ZM141.503 374.917L141.226 375.334L141.227 375.334L141.503 374.917ZM141.657 375.02L141.381 375.436L141.382 375.437L141.657 375.02ZM141.823 375.129L141.548 375.546L141.549 375.547L141.823 375.129ZM174.293 383.26L174.291 383.76L174.293 383.26ZM195.167 380.754L195.003 380.282L195.003 380.282L195.167 380.754ZM195.359 380.686L195.191 380.215L195.191 380.215L195.359 380.686ZM195.643 380.582L196.134 380.675L196.298 379.804L195.468 380.114L195.643 380.582ZM185.312 435.462L185.803 435.555L185.312 435.462ZM185.801 440.547L186.239 440.307L185.801 440.547ZM193.481 446.524L193.704 446.077H193.704L193.481 446.524ZM202.156 450.426L201.981 450.894H201.981L202.156 450.426ZM203.782 451.019L204.28 451.068L204.318 450.679L203.95 450.548L203.782 451.019ZM200.891 474.396L201.384 474.48L200.891 474.396ZM197.271 492.434L197.446 492.903L197.701 492.807L197.759 492.541L197.271 492.434ZM195.935 492.964L196.129 493.425L196.129 493.425L195.935 492.964ZM194.387 493.613L194.58 494.074L194.387 493.613ZM177.002 505.344L177.358 505.696L177.002 505.344ZM172.381 510.009L172.736 510.361L172.381 510.009ZM161.258 524.522L160.826 524.271L161.258 524.522ZM157.101 531.662L156.669 531.411L157.101 531.662ZM154.81 535.107L154.402 534.819H154.402L154.81 535.107ZM150.86 545.544L151.35 545.445L150.86 545.544ZM161.952 573.988L162.383 573.735L161.952 573.988ZM165.896 580.698L166.326 580.444L165.896 580.698ZM181.396 605.406L181.818 605.137H181.818L181.396 605.406ZM182.402 606.995L181.98 607.262L182.402 606.995ZM190.41 617.702L190.757 617.342V617.342L190.41 617.702ZM215.184 630.873L215.013 631.342H215.013L215.184 630.873ZM217.212 631.578L217.056 632.053H217.056L217.212 631.578ZM249.715 636.591L249.746 636.091L249.715 636.591ZM253.494 636.821L253.463 637.32L253.498 637.322L253.534 637.319L253.494 636.821ZM261.616 636.168L261.656 636.667L261.616 636.168ZM275.066 631.887L274.716 631.53L275.066 631.887ZM278.721 624.02L278.236 623.898L278.234 623.908L278.232 623.917L278.721 624.02ZM278.722 624.018L279.207 624.14L279.212 624.12L279.215 624.101L278.722 624.018ZM278.722 624.018L278.233 623.915L278.23 623.925L278.229 623.936L278.722 624.018ZM279.315 621.402L278.831 621.278L279.315 621.402ZM279.701 619.617L279.209 619.527L279.701 619.617ZM279.315 601.05L278.84 601.205L279.315 601.05ZM275.208 593.899L275.606 593.596L275.208 593.899ZM270.503 588.829L270.153 589.186L270.503 588.829ZM263.626 580.081L263.166 580.277L263.626 580.081ZM250.779 541.308L251.254 541.153L250.779 541.308ZM248.112 531.766L248.599 531.652L248.112 531.766ZM244.527 516.459L245.014 516.345L244.527 516.459ZM244.088 514.775L243.605 514.646L243.569 514.78L243.607 514.913L244.088 514.775ZM251.85 483.328L252.339 483.433L251.85 483.328ZM256.49 457.977L256.476 457.477L256.064 457.489L255.997 457.896L256.49 457.977ZM272.812 455.057L273.026 455.509L272.812 455.057ZM276.738 452.587L276.397 452.221L276.738 452.587ZM280.548 443.085L280.055 443.003L280.548 443.085ZM286.551 407.205L286.063 407.098L286.06 407.11L286.058 407.123L286.551 407.205ZM288.611 397.818L289.1 397.926L288.611 397.818ZM292.891 379.462L292.406 379.341L292.405 379.345L292.891 379.462ZM292.894 379.452L293.379 379.573L293.38 379.569L292.894 379.452ZM301.453 337.708L301.204 337.275L300.991 337.398L300.958 337.641L301.453 337.708ZM318.433 327.924L318.22 327.472L318.201 327.481L318.184 327.491L318.433 327.924ZM325.066 327.048L324.82 327.483L325.066 327.048ZM376.737 377.408L377.099 377.063L376.737 377.408ZM429.798 431.385L430.141 431.021L429.798 431.385ZM438.903 432.583L439.058 433.058L438.903 432.583ZM440.043 432.211L439.888 431.735L440.043 432.211ZM444.653 429.733L444.34 429.343L444.653 429.733ZM449.343 425.903L449.631 425.495L449.319 425.274L449.024 425.519L449.343 425.903ZM472.957 443.998L472.627 444.374L472.957 443.998ZM495.647 466.99L496.105 467.19L496.235 466.893L496.017 466.654L495.647 466.99ZM494.622 469.793L495.101 469.936L494.622 469.793ZM497.163 489.037L497.589 488.775L497.163 489.037ZM502.01 496.929L501.584 497.191L502.01 496.929ZM507.486 504.399L507.108 504.727L507.486 504.399ZM525.557 525.151L525.933 524.822L525.557 525.151ZM536.523 528.614L536.404 528.128L536.523 528.614ZM540.686 526.597L540.376 526.204L540.686 526.597ZM597.786 478.058L598.134 478.417L597.786 478.058ZM608.168 468.59L608.499 468.966L608.5 468.965L608.168 468.59ZM608.172 468.587L607.843 468.211L607.841 468.213L608.172 468.587ZM608.176 468.584L607.856 468.199L607.847 468.207L608.176 468.584ZM608.177 468.583L608.497 468.967L608.507 468.958L608.177 468.583ZM629.556 444.729L629.983 444.989L629.556 444.729ZM645.316 411.184L645.803 411.298L645.316 411.184ZM643.312 398.131L642.949 398.476L643.312 398.131ZM636.163 393.498L636.367 393.041L636.163 393.498ZM618.747 388.565L618.758 388.065L618.747 388.565ZM610.887 389.182L610.783 388.693L610.887 389.182ZM598.096 395.802L597.793 395.404L597.793 395.404L598.096 395.802ZM595.821 397.514L595.523 397.112L595.821 397.514ZM588.767 403.829L589.122 404.181V404.181L588.767 403.829ZM577.57 413.408L577.289 412.995V412.995L577.57 413.408ZM577.175 413.677L577.456 414.09V414.09L577.175 413.677ZM547.466 423.288L547.451 422.788L547.466 423.288ZM536.602 423.601L536.588 423.101L536.602 423.601ZM527.47 426.486L527.195 426.068L527.194 426.069L527.47 426.486ZM527.389 426.54L527.112 426.123L527.11 426.125L527.389 426.54ZM527.31 426.593L526.969 426.958L527.259 427.229L527.589 427.008L527.31 426.593ZM486.971 388.962L486.572 388.66L486.3 389.02L486.63 389.327L486.971 388.962ZM487.119 388.766L487.518 389.066L487.518 389.066L487.119 388.766ZM491.851 382.101L492.263 382.384L491.851 382.101ZM493.462 373.095L492.977 373.214L493.462 373.095ZM490.383 367.688L490.731 367.329L490.383 367.688ZM384.925 275.113L385.223 274.712L384.925 275.113ZM369.883 264.191L370.174 263.784L369.883 264.191ZM362.626 260.928L362.514 261.416L362.626 260.928ZM361.686 260.714L361.797 260.226H361.797L361.686 260.714ZM360.764 260.529L360.486 260.113L359.447 260.809L360.679 261.021L360.764 260.529ZM367.018 256.095L366.847 255.625L366.775 255.652L366.714 255.698L367.018 256.095ZM367.084 256.071L367.312 255.626L367.117 255.526L366.912 255.601L367.084 256.071ZM380.451 257.659L380.651 258.117L380.451 257.659ZM385.68 253.444L385.879 252.985L385.494 252.818L385.263 253.168L385.68 253.444ZM395.004 252.53L394.78 252.083L395.004 252.53ZM400.8 246.253L400.876 245.759L400.455 245.694L400.324 246.099L400.8 246.253ZM414.13 235.951L413.898 235.508L413.641 235.643L413.631 235.934L414.13 235.951ZM420.212 232.469V231.969H420.069L419.948 232.045L420.212 232.469ZM421.592 232.469V232.969H422.067L422.091 232.495L421.592 232.469ZM427.801 110.708L427.307 110.627L427.303 110.655L427.301 110.683L427.801 110.708ZM426.167 105.03L426.442 104.613L426.167 105.03ZM422.899 103.769L422.964 103.273L422.927 103.268L422.89 103.269L422.899 103.769ZM270.945 106.923L270.933 107.423L270.944 107.423L270.955 107.423L270.945 106.923ZM265.39 107.869L265.648 108.298L265.39 107.869ZM263.756 110.708L263.259 110.653L263.257 110.669L263.257 110.686L263.756 110.708ZM258.398 228.149L258.395 228.649L258.875 228.652L258.897 228.172L258.398 228.149ZM258.115 228.147L258.117 227.647L258.021 227.647L257.931 227.682L258.115 228.147ZM250.302 231.227L250.293 231.727L250.393 231.729L250.486 231.692L250.302 231.227ZM226.68 230.663L226.246 230.913L226.386 231.155L226.665 231.163L226.68 230.663ZM226.555 230.447L226.988 230.197L226.988 230.197L226.555 230.447ZM226.464 230.289L226.896 230.038L226.896 230.038L226.464 230.289ZM224.251 226.472L224.683 226.222L224.251 226.472ZM216.42 209.822L216.889 209.649L216.42 209.822ZM202.076 168.344L202.549 168.181L202.539 168.152L202.526 168.125L202.076 168.344ZM200.175 164.425L200.625 164.207V164.207L200.175 164.425ZM187.182 145.61L187.545 145.266L187.523 145.243L187.498 145.223L187.182 145.61ZM179.569 139.381L179.885 138.994L179.878 138.989L179.872 138.983L179.569 139.381ZM177.48 137.79L177.783 137.393L177.48 137.79ZM166.605 132.992L166.515 133.484L166.605 132.992ZM158.091 132.887L158.169 133.381L158.091 132.887ZM156.399 133.153L156.321 132.659L156.307 132.661L156.293 132.664L156.399 133.153ZM155.7 133.304L155.806 133.793L155.7 133.304ZM148.999 132.084L149.271 131.664L148.999 132.084ZM147.368 131.029L147.64 130.609L147.368 131.029ZM146.47 130.688L146.074 130.993L146.196 131.152L146.394 131.182L146.47 130.688ZM146.233 130.383L145.839 130.69L145.839 130.69L146.233 130.383ZM144.439 126.967L143.947 127.059L144.439 126.967ZM145.212 120.292L145.064 119.815L144.807 119.895L144.732 120.153L145.212 120.292ZM174.409 93.6607L174.368 93.1623L174.055 93.1877L173.942 93.4807L174.409 93.6607ZM183.203 83.1847L182.703 83.1628L182.701 83.2116L182.708 83.2598L183.203 83.1847ZM175.716 67.9058L175.234 68.0378L175.284 68.223L175.446 68.3266L175.716 67.9058ZM173.316 61.3605L172.819 61.4129L172.828 61.4957L172.863 61.5713L173.316 61.3605ZM138.247 25.0352L137.751 25.0994L137.805 25.5195L138.229 25.5349L138.247 25.0352ZM79.3431 28.1328C79.3431 34.9264 82.1373 41.1383 86.6477 45.9391L87.3765 45.2544C83.0192 40.6166 80.3431 34.6428 80.3431 28.1328H79.3431ZM86.5789 45.3472C82.6463 52.1746 80.4391 60.3072 79.8539 68.8901L80.8515 68.9581C81.4284 60.4979 83.6021 52.5186 87.4454 45.8463L86.5789 45.3472ZM79.8527 68.9241C79.8527 70.5121 79.9431 72.068 80.1196 73.5892L81.1129 73.474C80.941 71.9915 80.8527 70.4741 80.8527 68.9241H79.8527ZM80.4776 73.0512C75.3378 74.5344 71.2666 79.0695 71.2127 84.562L72.2126 84.5718C72.2615 79.591 75.9685 75.3932 80.7549 74.012L80.4776 73.0512ZM71.2137 84.5351C70.9799 88.2032 72.4786 91.8707 74.9688 94.5215C77.4615 97.175 80.9839 98.8461 84.8192 98.4473L84.7157 97.4527C81.2475 97.8133 78.0186 96.3075 75.6977 93.8368C73.3743 91.3636 71.9974 87.9598 72.2116 84.5987L71.2137 84.5351ZM84.7675 98.45C86.0575 98.45 87.3015 98.2127 88.4728 97.7869L88.1311 96.8471C87.0621 97.2357 85.9335 97.45 84.7675 97.45V98.45ZM87.8547 97.5406C94.372 110.577 107.47 120.127 123.12 122.451L123.267 121.462C107.927 119.184 95.1152 109.827 88.7492 97.0934L87.8547 97.5406ZM122.705 122.063C122.933 123.11 123.181 124.602 123.067 125.683L124.062 125.788C124.194 124.532 123.91 122.901 123.682 121.851L122.705 122.063ZM123.067 125.683C122.893 127.343 121.918 128.357 120.782 129.515L121.496 130.215C122.608 129.081 123.847 127.838 124.062 125.788L123.067 125.683ZM120.782 129.515C120.717 129.582 120.651 129.649 120.585 129.716L121.301 130.415C121.366 130.348 121.431 130.282 121.496 130.215L120.782 129.515ZM120.853 129.574L120.422 129.653L120.602 130.636L121.033 130.557L120.853 129.574ZM120.355 129.67L108.072 133.752L108.388 134.701L120.67 130.619L120.355 129.67ZM108.008 133.779L94.0662 140.688L94.5103 141.584L108.452 134.675L108.008 133.779ZM94.04 140.702C84.5188 146.148 75.5615 152.525 67.2995 159.74L67.9573 160.494C76.1694 153.322 85.0728 146.983 94.5365 141.57L94.04 140.702ZM67.2995 159.74L66.7396 160.229L67.3973 160.982L67.9573 160.494L67.2995 159.74ZM66.7209 160.246L21.2439 204.211L21.939 204.93L67.416 160.965L66.7209 160.246ZM21.2096 204.248L13.3625 213.528L14.1261 214.173L21.9732 204.894L21.2096 204.248ZM13.3625 213.528C11.4988 215.732 9.80251 218.072 8.28768 220.528L9.13887 221.053C10.6276 218.639 12.2946 216.339 14.1261 214.173L13.3625 213.528ZM8.28768 220.528L4.40044 226.833L5.25164 227.357L9.13887 221.053L8.28768 220.528ZM4.40044 226.833C2.28699 230.26 0.991655 234.129 0.614963 238.138L1.61058 238.231C1.9729 234.375 3.21881 230.654 5.25164 227.357L4.40044 226.833ZM0.614963 238.138C0.106886 243.545 1.29113 248.977 4.00398 253.682L4.8703 253.182C2.26094 248.657 1.12188 243.432 1.61058 238.231L0.614963 238.138ZM4.00398 253.682L4.22394 254.063L5.09026 253.564L4.8703 253.182L4.00398 253.682ZM4.22394 254.063C6.66278 258.293 10.1803 261.8 14.4175 264.227L14.9144 263.359C10.8308 261.021 7.44071 257.641 5.09026 253.564L4.22394 254.063ZM14.4175 264.227L15.0436 264.585L15.5405 263.717L14.9144 263.359L14.4175 264.227ZM14.9994 264.557C25.0373 271.803 41.0322 279.631 59.0362 286.496C77.0471 293.364 97.1034 299.282 115.282 302.694L115.466 301.711C97.3555 298.312 77.3571 292.412 59.3925 285.562C41.4209 278.709 25.5194 270.917 15.5847 263.746L14.9994 264.557ZM114.876 302.155C114.737 303.616 114.602 305.06 114.488 306.335L115.484 306.425C115.598 305.152 115.733 303.71 115.872 302.25L114.876 302.155ZM114.488 306.335C113.257 320.017 114.577 333.919 119.408 346.808L120.345 346.457C115.575 333.733 114.264 319.986 115.484 306.425L114.488 306.335ZM119.408 346.808C119.659 347.478 119.908 348.127 120.153 348.75L121.084 348.384C120.841 347.767 120.594 347.122 120.345 346.457L119.408 346.808ZM120.153 348.75C124.374 359.484 131.606 368.936 141.226 375.334L141.78 374.501C132.345 368.227 125.237 358.946 121.084 348.384L120.153 348.75ZM141.227 375.334L141.381 375.436L141.934 374.603L141.78 374.501L141.227 375.334ZM141.382 375.437L141.548 375.546L142.099 374.712L141.933 374.602L141.382 375.437ZM141.549 375.547C150.492 381.426 161.209 383.754 171.857 383.754V382.754C161.346 382.754 150.835 380.455 142.098 374.711L141.549 375.547ZM171.857 383.754H172.964V382.754H171.857V383.754ZM172.964 383.754C173.408 383.754 173.841 383.758 174.291 383.76L174.295 382.76C173.855 382.758 173.409 382.754 172.964 382.754V383.754ZM174.291 383.76C175.707 383.766 179.215 383.739 183.238 383.41C187.252 383.082 191.818 382.448 195.332 381.226L195.003 380.282C191.613 381.461 187.149 382.087 183.156 382.413C179.172 382.74 175.695 382.766 174.295 382.76L174.291 383.76ZM195.332 381.226C195.397 381.203 195.463 381.18 195.528 381.157L195.191 380.215C195.128 380.238 195.066 380.26 195.003 380.282L195.332 381.226ZM195.528 381.157C195.625 381.122 195.721 381.087 195.818 381.051L195.468 380.114C195.376 380.148 195.283 380.182 195.191 380.215L195.528 381.157ZM195.151 380.49L184.82 435.37L185.803 435.555L196.134 380.675L195.151 380.49ZM184.82 435.37C184.489 437.13 184.44 439.104 185.362 440.787L186.239 440.307C185.482 438.925 185.488 437.23 185.803 435.555L184.82 435.37ZM185.362 440.787C187.035 443.841 190.334 445.516 193.258 446.972L193.704 446.077C190.723 444.592 187.736 443.039 186.239 440.307L185.362 440.787ZM193.258 446.972C195.89 448.283 199.251 449.875 201.981 450.894L202.331 449.958C199.653 448.957 196.331 447.385 193.704 446.077L193.258 446.972ZM201.981 450.894C202.543 451.104 203.086 451.303 203.615 451.49L203.95 450.548C203.427 450.362 202.888 450.166 202.331 449.958L201.981 450.894ZM203.285 450.971C202.636 457.65 201.594 467.294 200.398 474.312L201.384 474.48C202.587 467.423 203.631 457.748 204.28 451.068L203.285 450.971ZM200.398 474.312C199.468 479.773 198.012 486.717 196.782 492.327L197.759 492.541C198.99 486.928 200.449 479.966 201.384 474.48L200.398 474.312ZM197.096 491.966C196.641 492.136 196.19 492.315 195.742 492.502L196.129 493.425C196.564 493.242 197.003 493.068 197.446 492.903L197.096 491.966ZM195.742 492.502L194.193 493.152L194.58 494.074L196.129 493.425L195.742 492.502ZM194.193 493.152C187.623 495.907 181.661 499.93 176.647 504.992L177.358 505.696C182.279 500.727 188.131 496.778 194.58 494.074L194.193 493.152ZM176.647 504.992L172.026 509.658L172.736 510.361L177.358 505.696L176.647 504.992ZM172.026 509.658C167.69 514.035 163.926 518.946 160.826 524.271L161.69 524.774C164.748 519.522 168.46 514.679 172.736 510.361L172.026 509.658ZM160.826 524.271L156.669 531.411L157.533 531.914L161.69 524.774L160.826 524.271ZM156.669 531.411C156.011 532.541 155.217 533.666 154.402 534.819L155.219 535.396C156.028 534.25 156.849 533.089 157.533 531.914L156.669 531.411ZM154.402 534.819C153.238 536.466 152.03 538.173 151.217 539.948C150.399 541.732 149.96 543.624 150.37 545.644L151.35 545.445C150.996 543.7 151.363 542.029 152.126 540.364C152.894 538.69 154.043 537.06 155.219 535.396L154.402 534.819ZM150.37 545.644C152.42 555.743 156.309 565.366 161.52 574.242L162.383 573.735C157.22 564.944 153.376 555.424 151.35 545.445L150.37 545.644ZM161.52 574.242C162.984 576.733 164.389 579.125 165.465 580.952L166.326 580.444C165.251 578.618 163.846 576.227 162.383 573.735L161.52 574.242ZM165.465 580.952C168.034 585.315 176.022 597.903 180.975 605.674L181.818 605.137C176.86 597.357 168.885 584.788 166.326 580.444L165.465 580.952ZM180.975 605.674C181.311 606.201 181.645 606.731 181.98 607.262L182.825 606.728C182.491 606.198 182.155 605.666 181.818 605.137L180.975 605.674ZM181.98 607.262C184.364 611.043 186.798 614.905 190.062 618.061L190.757 617.342C187.594 614.284 185.222 610.527 182.825 606.728L181.98 607.262ZM190.062 618.061C196.913 624.685 206.193 628.128 215.013 631.342L215.355 630.403C206.5 627.176 197.431 623.794 190.757 617.342L190.062 618.061ZM215.013 631.342C215.717 631.599 216.403 631.839 217.056 632.053L217.368 631.103C216.727 630.893 216.051 630.657 215.355 630.403L215.013 631.342ZM217.056 632.053C227.573 635.509 238.708 636.422 249.685 637.09L249.746 636.091C238.767 635.423 227.749 634.514 217.368 631.103L217.056 632.053ZM249.685 637.09L253.463 637.32L253.524 636.321L249.746 636.091L249.685 637.09ZM253.534 637.319L261.656 636.667L261.576 635.67L253.454 636.322L253.534 637.319ZM261.656 636.667C266.416 636.285 271.834 635.765 275.417 632.243L274.716 631.53C271.435 634.755 266.411 635.282 261.576 635.67L261.656 636.667ZM275.417 632.243C278.053 629.652 278.583 627.101 279.211 624.123L278.232 623.917C277.605 626.891 277.118 629.169 274.716 631.53L275.417 632.243ZM279.206 624.141L279.207 624.14L278.236 623.898L278.236 623.898L279.206 624.141ZM279.207 624.14L279.207 624.14L278.237 623.897L278.236 623.898L279.207 624.14ZM279.215 624.101L279.215 624.1L278.229 623.936L278.229 623.936L279.215 624.101ZM279.211 624.121C279.385 623.295 279.566 622.438 279.8 621.527L278.831 621.278C278.591 622.214 278.406 623.091 278.233 623.915L279.211 624.121ZM279.8 621.527C279.946 620.956 280.077 620.341 280.193 619.707L279.209 619.527C279.096 620.144 278.971 620.735 278.831 621.278L279.8 621.527ZM280.193 619.707C281.321 613.536 281.769 606.948 279.791 600.895L278.84 601.205C280.742 607.022 280.327 613.414 279.209 619.527L280.193 619.707ZM279.791 600.895C278.994 598.457 277.337 595.864 275.606 593.596L274.811 594.202C276.52 596.443 278.096 598.929 278.84 601.205L279.791 600.895ZM275.606 593.596C274.194 591.746 272.506 590.092 270.853 588.472L270.153 589.186C271.815 590.815 273.45 592.419 274.811 594.202L275.606 593.596ZM270.853 588.472C268.127 585.799 265.504 583.219 264.086 579.885L263.166 580.277C264.675 583.825 267.454 586.541 270.153 589.186L270.853 588.472ZM264.086 579.885C263.722 579.028 261.409 572.089 258.728 563.957C256.054 555.846 253.031 546.595 251.254 541.153L250.304 541.463C252.08 546.905 255.104 556.158 257.778 564.27C260.446 572.362 262.78 579.368 263.166 580.277L264.086 579.885ZM251.254 541.153C250.232 538.021 249.35 534.861 248.599 531.652L247.625 531.88C248.383 535.116 249.273 538.303 250.304 541.463L251.254 541.153ZM248.599 531.652L245.014 516.345L244.041 516.573L247.625 531.88L248.599 531.652ZM245.014 516.345C244.88 515.771 244.731 515.201 244.568 514.636L243.607 514.913C243.766 515.462 243.91 516.015 244.041 516.573L245.014 516.345ZM244.571 514.903C245.875 510.012 250.024 494.267 252.339 483.433L251.362 483.224C249.052 494.03 244.909 509.752 243.605 514.646L244.571 514.903ZM252.339 483.433C253.97 475.804 255.679 465.987 256.984 458.058L255.997 457.896C254.693 465.822 252.987 475.619 251.362 483.224L252.339 483.433ZM256.505 458.477C262.128 458.309 267.89 457.937 273.026 455.509L272.599 454.605C267.672 456.934 262.104 457.309 256.476 457.477L256.505 458.477ZM273.026 455.509C274.68 454.727 275.707 454.23 277.078 452.953L276.397 452.221C275.145 453.387 274.239 453.829 272.599 454.605L273.026 455.509ZM277.078 452.953C279.772 450.445 280.472 446.57 281.041 443.168L280.055 443.003C279.475 446.47 278.801 449.982 276.397 452.221L277.078 452.953ZM281.041 443.168L287.044 407.288L286.058 407.123L280.055 443.003L281.041 443.168ZM287.039 407.312L289.1 397.926L288.123 397.711L286.063 407.098L287.039 407.312ZM289.1 397.926C290.444 391.801 291.91 385.693 293.377 379.579L292.405 379.345C290.938 385.458 289.469 391.576 288.123 397.711L289.1 397.926ZM293.376 379.583L293.377 379.582L292.406 379.339L292.406 379.341L293.376 379.583ZM293.377 379.582L293.377 379.581L292.407 379.338L292.406 379.339L293.377 379.582ZM293.377 379.581L293.377 379.58L292.407 379.337L292.407 379.338L293.377 379.581ZM293.377 379.58L293.377 379.579L292.407 379.336L292.407 379.337L293.377 379.58ZM293.377 379.579L293.378 379.578L292.408 379.335L292.407 379.336L293.377 379.579ZM293.378 379.578L293.378 379.577L292.408 379.334L292.408 379.335L293.378 379.578ZM293.378 379.577L293.378 379.575L292.408 379.333L292.408 379.334L293.378 379.577ZM293.378 379.575L293.379 379.574L292.408 379.332L292.408 379.333L293.378 379.575ZM293.379 379.574L293.379 379.573L292.409 379.331L292.408 379.332L293.379 379.574ZM293.38 379.569C296.701 365.732 300.031 351.863 301.949 337.776L300.958 337.641C299.048 351.67 295.731 365.491 292.408 379.335L293.38 379.569ZM301.703 338.141L318.683 328.358L318.184 327.491L301.204 337.275L301.703 338.141ZM318.646 328.377C319.738 327.862 320.824 327.372 321.885 327.147C322.933 326.924 323.913 326.969 324.82 327.483L325.313 326.613C324.129 325.942 322.88 325.913 321.677 326.169C320.487 326.422 319.302 326.962 318.22 327.472L318.646 328.377ZM324.82 327.483C326.824 328.619 329.611 330.808 333.043 333.858C336.468 336.901 340.509 340.779 345.016 345.27C354.031 354.253 364.89 365.674 376.375 377.752L377.099 377.063C365.618 364.988 354.748 353.556 345.722 344.562C341.209 340.065 337.153 336.172 333.707 333.111C330.27 330.056 327.416 327.805 325.313 326.613L324.82 327.483ZM376.375 377.752C394.085 396.378 413.282 416.568 429.456 431.75L430.141 431.021C413.991 415.862 394.816 395.696 377.099 377.063L376.375 377.752ZM429.456 431.75C432.033 434.169 435.885 434.094 439.058 433.058L438.748 432.108C435.715 433.098 432.324 433.07 430.141 431.021L429.456 431.75ZM439.058 433.058L440.198 432.686L439.888 431.735L438.748 432.108L439.058 433.058ZM440.198 432.686C441.927 432.122 443.544 431.265 444.966 430.123L444.34 429.343C443.016 430.406 441.507 431.207 439.888 431.735L440.198 432.686ZM444.966 430.123C446.131 429.188 447.738 427.884 449.662 426.288L449.024 425.519C447.104 427.111 445.502 428.411 444.34 429.343L444.966 430.123ZM449.054 426.312C455.29 430.72 465.655 438.252 472.627 444.374L473.287 443.623C466.272 437.462 455.867 429.904 449.631 425.495L449.054 426.312ZM472.627 444.374C480.499 451.287 490.534 462.104 495.277 467.326L496.017 466.654C491.276 461.433 481.207 450.578 473.287 443.623L472.627 444.374ZM495.189 466.79C494.782 467.721 494.432 468.677 494.143 469.651L495.101 469.936C495.379 469.001 495.715 468.084 496.105 467.19L495.189 466.79ZM494.143 469.651C493.477 471.89 493.133 474.233 493.133 476.57H494.133C494.133 474.331 494.463 472.083 495.101 469.936L494.143 469.651ZM493.133 476.57C493.133 481.065 494.384 485.47 496.737 489.299L497.589 488.775C495.332 485.103 494.133 480.879 494.133 476.57H493.133ZM496.737 489.299C498.424 492.043 500.206 494.945 501.584 497.191L502.436 496.668C501.058 494.421 499.276 491.519 497.589 488.775L496.737 489.299ZM501.584 497.191C503.218 499.854 505.059 502.368 507.108 504.727L507.863 504.071C505.85 501.754 504.041 499.284 502.436 496.668L501.584 497.191ZM507.108 504.727C511.307 509.56 519.051 518.468 525.18 525.48L525.933 524.822C519.805 517.811 512.062 508.904 507.863 504.071L507.108 504.727ZM525.18 525.48C528.024 528.734 532.444 530.125 536.641 529.1L536.404 528.128C532.568 529.065 528.531 527.794 525.933 524.822L525.18 525.48ZM536.641 529.1C538.231 528.711 539.706 528.004 540.995 526.99L540.376 526.204C539.203 527.127 537.858 527.773 536.404 528.128L536.641 529.1ZM540.995 526.99C548.787 520.863 579.385 496.577 598.134 478.417L597.438 477.698C578.732 495.818 548.174 520.073 540.376 526.204L540.995 526.99ZM598.134 478.417C601.837 474.83 605.266 471.811 608.499 468.966L607.838 468.215C604.606 471.06 601.16 474.093 597.438 477.698L598.134 478.417ZM608.5 468.965L608.504 468.961L607.841 468.213L607.836 468.216L608.5 468.965ZM608.501 468.963L608.505 468.96L607.847 468.207L607.843 468.211L608.501 468.963ZM608.496 468.968L608.497 468.967L607.857 468.199L607.856 468.2L608.496 468.968ZM608.507 468.958C616.544 461.884 623.363 455.885 629.983 444.989L629.128 444.47C622.595 455.224 615.879 461.137 607.847 468.207L608.507 468.958ZM629.983 444.989C636.395 434.435 642.957 423.42 645.803 411.298L644.829 411.07C642.026 423.013 635.551 433.897 629.128 444.47L629.983 444.989ZM645.803 411.298C646.962 406.357 646.945 401.228 643.674 397.787L642.949 398.476C645.854 401.531 645.971 406.206 644.829 411.07L645.803 411.298ZM643.674 397.787C641.633 395.64 638.995 394.218 636.367 393.041L635.959 393.954C638.554 395.116 641.047 396.474 642.949 398.476L643.674 397.787ZM636.367 393.041C631.972 391.073 624.586 388.187 618.758 388.065L618.737 389.065C624.341 389.182 631.56 391.985 635.959 393.954L636.367 393.041ZM618.758 388.065C615.659 388 613.841 388.045 610.783 388.693L610.99 389.671C613.943 389.046 615.677 389.001 618.737 389.065L618.758 388.065ZM610.783 388.693C605.006 389.917 601.883 392.295 597.793 395.404L598.398 396.2C602.479 393.098 605.449 390.845 610.99 389.671L610.783 388.693ZM597.793 395.404C597.073 395.951 596.324 396.52 595.523 397.112L596.118 397.916C596.925 397.32 597.679 396.747 598.398 396.2L597.793 395.404ZM595.523 397.112C593.189 398.837 590.596 401.275 588.412 403.477L589.122 404.181C591.296 401.989 593.846 399.595 596.118 397.916L595.523 397.112ZM588.412 403.477C584.957 406.96 581.323 410.253 577.289 412.995L577.852 413.822C581.96 411.03 585.644 407.687 589.122 404.181L588.412 403.477ZM577.289 412.995L576.894 413.263L577.456 414.09L577.852 413.822L577.289 412.995ZM576.894 413.263C568.188 419.18 557.973 422.485 547.451 422.788L547.48 423.788C558.192 423.479 568.593 420.114 577.456 414.09L576.894 413.263ZM547.451 422.788L536.588 423.101L536.617 424.101L547.48 423.788L547.451 422.788ZM536.588 423.101C533.242 423.198 529.989 424.225 527.195 426.068L527.745 426.903C530.384 425.162 533.456 424.192 536.617 424.101L536.588 423.101ZM527.194 426.069L527.112 426.123L527.665 426.956L527.747 426.902L527.194 426.069ZM527.11 426.125L527.031 426.178L527.589 427.008L527.667 426.955L527.11 426.125ZM527.651 426.227L487.312 388.596L486.63 389.327L526.969 426.958L527.651 426.227ZM487.37 389.263C487.419 389.197 487.469 389.132 487.518 389.066L486.719 388.465C486.67 388.53 486.621 388.595 486.572 388.66L487.37 389.263ZM487.518 389.066C489.006 387.085 490.8 384.518 492.263 382.384L491.438 381.818C489.977 383.95 488.193 386.502 486.719 388.465L487.518 389.066ZM492.263 382.384C494.149 379.632 494.739 376.209 493.948 372.976L492.977 373.214C493.702 376.178 493.159 379.308 491.438 381.818L492.263 382.384ZM493.948 372.976C493.42 370.817 492.333 368.88 490.731 367.329L490.035 368.048C491.498 369.463 492.492 371.231 492.977 373.214L493.948 372.976ZM490.731 367.329C479.051 356.025 425.315 304.528 385.223 274.712L384.626 275.514C424.658 305.285 478.349 356.737 490.035 368.048L490.731 367.329ZM385.223 274.712C380.541 271.229 374.048 266.558 370.174 263.784L369.592 264.597C373.466 267.371 379.952 272.038 384.626 275.514L385.223 274.712ZM370.174 263.784C367.941 262.185 365.413 261.053 362.737 260.441L362.514 261.416C365.062 261.998 367.468 263.076 369.592 264.597L370.174 263.784ZM362.737 260.441L361.797 260.226L361.574 261.201L362.514 261.416L362.737 260.441ZM361.797 260.226C361.482 260.154 361.166 260.091 360.849 260.036L360.679 261.021C360.978 261.073 361.277 261.133 361.574 261.201L361.797 260.226ZM361.042 260.944C362.903 259.698 364.472 258.586 365.576 257.785C366.128 257.385 366.564 257.062 366.862 256.839C367.011 256.728 367.126 256.641 367.204 256.582C367.242 256.553 367.272 256.53 367.292 256.515C367.302 256.508 367.309 256.502 367.314 256.498C367.317 256.496 367.319 256.495 367.32 256.494C367.321 256.493 367.321 256.493 367.322 256.492C367.322 256.492 367.322 256.492 367.322 256.492C367.322 256.492 367.322 256.492 367.322 256.492C367.322 256.492 367.322 256.492 367.018 256.095C366.714 255.698 366.714 255.698 366.714 255.698C366.714 255.698 366.714 255.698 366.714 255.698C366.714 255.698 366.714 255.698 366.714 255.698C366.714 255.699 366.713 255.699 366.713 255.699C366.711 255.7 366.71 255.702 366.707 255.703C366.703 255.707 366.695 255.713 366.686 255.72C366.667 255.734 366.638 255.756 366.6 255.785C366.524 255.843 366.411 255.928 366.263 256.038C365.969 256.258 365.537 256.578 364.989 256.976C363.893 257.771 362.335 258.875 360.486 260.113L361.042 260.944ZM367.19 256.565L367.256 256.541L366.912 255.601L366.847 255.625L367.19 256.565ZM366.856 256.516C371.209 258.742 376.218 260.041 380.651 258.117L380.252 257.2C376.236 258.943 371.577 257.807 367.312 255.626L366.856 256.516ZM380.651 258.117C383.066 257.069 384.916 255.511 386.098 253.719L385.263 253.168C384.199 254.783 382.508 256.221 380.252 257.2L380.651 258.117ZM385.482 253.902C388.347 255.142 391.747 254.721 395.228 252.977L394.78 252.083C391.459 253.747 388.381 254.067 385.879 252.985L385.482 253.902ZM395.228 252.977C398.266 251.455 400.4 249.118 401.275 246.407L400.324 246.099C399.545 248.511 397.623 250.658 394.78 252.083L395.228 252.977ZM400.723 246.747C401.357 246.845 402.008 246.896 402.671 246.896V245.896C402.059 245.896 401.46 245.849 400.876 245.759L400.723 246.747ZM402.671 246.896C409.119 246.896 414.418 242.064 414.63 235.968L413.631 235.934C413.439 241.44 408.632 245.896 402.671 245.896V246.896ZM414.362 236.394C416.231 235.415 418.227 234.295 420.476 232.894L419.948 232.045C417.722 233.432 415.748 234.539 413.898 235.508L414.362 236.394ZM420.212 232.969H421.592V231.969H420.212V232.969ZM422.091 232.495L428.3 110.734L427.301 110.683L421.093 232.444L422.091 232.495ZM427.801 110.708C428.294 110.79 428.294 110.79 428.294 110.789C428.294 110.789 428.294 110.789 428.294 110.789C428.294 110.789 428.294 110.788 428.294 110.788C428.295 110.787 428.295 110.786 428.295 110.784C428.295 110.782 428.296 110.778 428.297 110.773C428.298 110.764 428.3 110.75 428.303 110.733C428.308 110.699 428.314 110.65 428.322 110.588C428.337 110.463 428.356 110.286 428.371 110.07C428.4 109.638 428.414 109.043 428.351 108.394C428.229 107.126 427.799 105.506 426.442 104.613L425.892 105.448C426.855 106.082 427.241 107.3 427.356 108.49C427.412 109.07 427.4 109.608 427.373 110.002C427.359 110.198 427.343 110.358 427.329 110.466C427.323 110.521 427.317 110.562 427.313 110.59C427.311 110.603 427.31 110.613 427.309 110.62C427.308 110.623 427.308 110.625 427.308 110.626C427.307 110.627 427.307 110.627 427.307 110.627C427.307 110.627 427.307 110.627 427.307 110.627C427.307 110.627 427.307 110.627 427.307 110.627C427.307 110.627 427.307 110.627 427.801 110.708ZM426.442 104.613C425.599 104.058 424.733 103.725 424.083 103.53C423.757 103.432 423.482 103.369 423.286 103.329C423.189 103.309 423.11 103.296 423.056 103.287C423.028 103.282 423.006 103.279 422.991 103.277C422.983 103.275 422.977 103.275 422.973 103.274C422.97 103.274 422.969 103.273 422.967 103.273C422.966 103.273 422.966 103.273 422.965 103.273C422.965 103.273 422.965 103.273 422.965 103.273C422.964 103.273 422.964 103.273 422.964 103.273C422.964 103.273 422.964 103.273 422.899 103.769C422.834 104.264 422.834 104.264 422.834 104.264C422.834 104.264 422.834 104.264 422.834 104.264C422.834 104.264 422.834 104.264 422.833 104.264C422.833 104.264 422.833 104.264 422.833 104.264C422.834 104.264 422.834 104.264 422.835 104.265C422.837 104.265 422.841 104.265 422.846 104.266C422.856 104.267 422.872 104.27 422.894 104.274C422.937 104.281 423.003 104.292 423.088 104.309C423.258 104.344 423.503 104.4 423.797 104.488C424.385 104.664 425.154 104.962 425.892 105.448L426.442 104.613ZM422.89 103.269C393.346 103.823 370.128 104.334 346.911 104.846L346.933 105.846C370.15 105.334 393.366 104.823 422.908 104.268L422.89 103.269ZM346.911 104.846C323.694 105.357 300.478 105.869 270.936 106.423L270.955 107.423C300.499 106.869 323.716 106.357 346.933 105.846L346.911 104.846ZM270.945 106.923C270.958 106.423 270.958 106.423 270.958 106.423C270.958 106.423 270.958 106.423 270.958 106.423C270.957 106.423 270.957 106.423 270.957 106.423C270.956 106.423 270.955 106.423 270.954 106.423C270.952 106.423 270.949 106.423 270.945 106.423C270.937 106.423 270.925 106.422 270.91 106.422C270.88 106.422 270.836 106.421 270.781 106.421C270.669 106.42 270.509 106.421 270.312 106.424C269.918 106.432 269.373 106.452 268.772 106.507C267.599 106.613 266.106 106.854 265.132 107.441L265.648 108.298C266.406 107.841 267.691 107.609 268.862 107.503C269.434 107.451 269.953 107.431 270.33 107.424C270.518 107.421 270.67 107.42 270.775 107.421C270.827 107.421 270.867 107.422 270.894 107.422C270.907 107.422 270.917 107.423 270.924 107.423C270.927 107.423 270.929 107.423 270.931 107.423C270.932 107.423 270.932 107.423 270.932 107.423C270.933 107.423 270.933 107.423 270.933 107.423C270.933 107.423 270.933 107.423 270.933 107.423C270.933 107.423 270.933 107.423 270.945 106.923ZM265.132 107.441C264.29 107.948 263.828 108.776 263.577 109.428C263.45 109.76 263.371 110.061 263.324 110.279C263.3 110.389 263.285 110.479 263.275 110.543C263.269 110.575 263.266 110.601 263.263 110.62C263.262 110.629 263.261 110.636 263.26 110.642C263.26 110.645 263.26 110.647 263.26 110.649C263.26 110.65 263.259 110.65 263.259 110.651C263.259 110.651 263.259 110.652 263.259 110.652C263.259 110.652 263.259 110.652 263.259 110.652C263.259 110.653 263.259 110.653 263.756 110.708C264.253 110.764 264.253 110.764 264.253 110.764C264.253 110.764 264.253 110.764 264.253 110.764C264.253 110.765 264.253 110.765 264.253 110.765C264.253 110.765 264.253 110.765 264.253 110.765C264.253 110.765 264.253 110.764 264.253 110.763C264.253 110.761 264.254 110.758 264.255 110.752C264.256 110.741 264.259 110.723 264.262 110.699C264.27 110.651 264.282 110.579 264.302 110.489C264.341 110.309 264.406 110.059 264.51 109.787C264.724 109.232 265.078 108.641 265.648 108.298L265.132 107.441ZM263.257 110.686L257.898 228.126L258.897 228.172L264.256 110.731L263.257 110.686ZM258.401 227.649L258.117 227.647L258.112 228.647L258.395 228.649L258.401 227.649ZM257.931 227.682L250.119 230.762L250.486 231.692L258.298 228.613L257.931 227.682ZM250.312 230.727C242.13 230.568 234.206 230.382 226.694 230.164L226.665 231.163C234.181 231.382 242.108 231.568 250.293 231.727L250.312 230.727ZM227.113 230.414C227.072 230.342 227.03 230.269 226.988 230.197L226.122 230.697C226.164 230.769 226.205 230.841 226.246 230.913L227.113 230.414ZM226.988 230.197L226.896 230.038L226.031 230.54L226.122 230.698L226.988 230.197ZM226.896 230.038L224.683 226.222L223.818 226.723L226.031 230.54L226.896 230.038ZM224.683 226.222C221.615 220.929 219.002 215.388 216.889 209.649L215.951 209.994C218.084 215.789 220.722 221.382 223.818 226.723L224.683 226.222ZM216.889 209.649C215.291 205.309 213.609 200.715 212.327 197.161C211.685 195.384 211.144 193.868 210.764 192.775C210.574 192.228 210.424 191.789 210.323 191.477C210.272 191.321 210.235 191.2 210.21 191.115C210.198 191.072 210.191 191.043 210.187 191.026C210.179 190.992 210.189 191.024 210.189 191.078H209.189C209.189 191.154 209.207 191.227 209.212 191.252C209.222 191.293 209.235 191.34 209.249 191.39C209.278 191.492 209.32 191.625 209.372 191.786C209.476 192.108 209.628 192.555 209.819 193.104C210.202 194.203 210.744 195.723 211.386 197.501C212.67 201.058 214.353 205.654 215.951 209.994L216.889 209.649ZM210.189 191.078C210.189 190.998 210.17 190.915 210.162 190.88C210.15 190.826 210.134 190.761 210.114 190.689C210.074 190.544 210.017 190.349 209.944 190.113C209.799 189.64 209.59 188.987 209.332 188.197C208.816 186.615 208.101 184.478 207.308 182.128C205.722 177.427 203.818 171.867 202.549 168.181L201.604 168.506C202.872 172.191 204.775 177.749 206.361 182.448C207.154 184.797 207.867 186.93 208.381 188.507C208.639 189.295 208.846 189.942 208.988 190.407C209.06 190.639 209.114 190.822 209.149 190.953C209.167 191.019 209.18 191.067 209.187 191.099C209.198 191.15 209.189 191.126 209.189 191.078H210.189ZM202.526 168.125L200.625 164.207L199.725 164.644L201.627 168.562L202.526 168.125ZM200.625 164.207C197.256 157.264 192.845 150.876 187.545 145.266L186.818 145.953C192.048 151.489 196.401 157.792 199.725 164.644L200.625 164.207ZM187.498 145.223L179.885 138.994L179.252 139.768L186.865 145.997L187.498 145.223ZM179.872 138.983L177.783 137.393L177.177 138.188L179.266 139.779L179.872 138.983ZM177.783 137.393C174.524 134.91 170.724 133.234 166.694 132.5L166.515 133.484C170.39 134.19 174.044 135.801 177.177 138.188L177.783 137.393ZM166.694 132.5C163.827 131.978 160.893 131.942 158.014 132.393L158.169 133.381C160.937 132.947 163.758 132.982 166.515 133.484L166.694 132.5ZM158.014 132.393L156.321 132.659L156.476 133.647L158.169 133.381L158.014 132.393ZM156.293 132.664L155.594 132.816L155.806 133.793L156.505 133.641L156.293 132.664ZM155.594 132.816C153.417 133.288 151.141 132.874 149.271 131.664L148.728 132.504C150.822 133.858 153.369 134.322 155.806 133.793L155.594 132.816ZM149.271 131.664L147.64 130.609L147.097 131.449L148.728 132.504L149.271 131.664ZM147.64 130.609C147.307 130.394 146.934 130.253 146.546 130.193L146.394 131.182C146.644 131.22 146.883 131.311 147.097 131.449L147.64 130.609ZM146.866 130.382C146.786 130.279 146.706 130.176 146.627 130.075L145.839 130.69C145.918 130.792 145.996 130.892 146.074 130.993L146.866 130.382ZM146.627 130.075C145.863 129.096 145.18 128.211 144.93 126.875L143.947 127.059C144.247 128.661 145.081 129.72 145.839 130.69L146.627 130.075ZM144.93 126.875C144.751 125.918 144.808 124.754 144.982 123.588C145.155 122.429 145.439 121.302 145.692 120.432L144.732 120.153C144.471 121.048 144.175 122.222 143.993 123.44C143.812 124.652 143.739 125.943 143.947 127.059L144.93 126.875ZM145.36 120.77C159.053 116.522 169.975 106.54 174.875 93.8407L173.942 93.4807C169.158 105.879 158.482 115.652 145.064 119.815L145.36 120.77ZM174.449 94.159C176.572 93.9866 179.095 92.7211 180.974 90.7842C182.861 88.8387 184.159 86.151 183.697 83.1095L182.708 83.2598C183.111 85.9091 181.992 88.2986 180.256 90.0879C178.512 91.886 176.205 93.0131 174.368 93.1623L174.449 94.159ZM183.702 83.2066C183.819 80.5367 182.718 77.1472 181.21 74.1944C180.452 72.7093 179.581 71.315 178.688 70.1546C177.8 69.0005 176.869 68.0516 175.986 67.4849L175.446 68.3266C176.192 68.8048 177.04 69.6525 177.896 70.7645C178.747 71.8703 179.586 73.2115 180.32 74.6492C181.797 77.542 182.809 80.7471 182.703 83.1628L183.702 83.2066ZM176.198 67.7738C175.573 65.489 174.758 63.2758 173.77 61.1498L172.863 61.5713C173.828 63.6473 174.623 65.8078 175.234 68.0378L176.198 67.7738ZM173.813 61.3082C171.454 38.9073 156.164 25.186 138.265 24.5355L138.229 25.5349C155.577 26.1653 170.506 39.4521 172.819 61.4129L173.813 61.3082ZM138.743 24.971C136.955 11.1609 123.668 0.5 108.654 0.5V1.5C123.238 1.5 136.037 11.8568 137.751 25.0994L138.743 24.971ZM108.654 0.5C92.4945 0.5 79.3431 12.8438 79.3431 28.1328H80.3431C80.3431 13.4518 92.9894 1.5 108.654 1.5V0.5Z" fill="white"/>
</svg>
